<?xml version="1.0" encoding="utf-8"?>
<!-- Generator: Adobe Illustrator 23.0.4, SVG Export Plug-In . SVG Version: 6.00 Build 0)  -->
<!DOCTYPE svg PUBLIC "-//W3C//DTD SVG 1.1//EN" "http://www.w3.org/Graphics/SVG/1.1/DTD/svg11.dtd" [
	<!ENTITY ns_extend "http://ns.adobe.com/Extensibility/1.0/">
	<!ENTITY ns_ai "http://ns.adobe.com/AdobeIllustrator/10.0/">
	<!ENTITY ns_graphs "http://ns.adobe.com/Graphs/1.0/">
	<!ENTITY ns_vars "http://ns.adobe.com/Variables/1.0/">
	<!ENTITY ns_imrep "http://ns.adobe.com/ImageReplacement/1.0/">
	<!ENTITY ns_sfw "http://ns.adobe.com/SaveForWeb/1.0/">
	<!ENTITY ns_custom "http://ns.adobe.com/GenericCustomNamespace/1.0/">
	<!ENTITY ns_adobe_xpath "http://ns.adobe.com/XPath/1.0/">
]>
<svg version="1.1" id="Layer_1" xmlns:x="&ns_extend;" xmlns:i="&ns_ai;" xmlns:graph="&ns_graphs;" focusable="false"
	 xmlns="http://www.w3.org/2000/svg" xmlns:xlink="http://www.w3.org/1999/xlink" x="0px" y="0px" width="512px" height="512px"
	 viewBox="0 0 512 512" style="enable-background:new 0 0 512 512;" xml:space="preserve">
<style type="text/css">
	.st0{fill:#FFFFFF;}
</style>
<metadata>
	<sfw  xmlns="&ns_sfw;">
		<slices></slices>
		<sliceSourceBounds  bottomLeftOrigin="true" height="512" width="512" x="0" y="0"></sliceSourceBounds>
	</sfw>
</metadata>
<path class="st0" d="M488,128h-8V80c0-44.8-99.2-80-224-80S32,35.2,32,80v48h-8c-13.2,0-24,10.7-24,24v80c0,13.2,10.8,24,24,24h8
	v160c0,17.7,14.3,32,32,32v32c0,17.7,14.3,32,32,32h32c17.7,0,32-14.3,32-32v-32h192v32c0,17.7,14.3,32,32,32h32
	c17.7,0,32-14.3,32-32v-32h6.4c16,0,25.6-12.8,25.6-25.6V256h8c13.2,0,24-10.8,24-24v-80C512,138.7,501.2,128,488,128z M160,72
	c0-4.4,3.6-8,8-8h176c4.4,0,8,3.6,8,8v16c0,4.4-3.6,8-8,8H168c-4.4,0-8-3.6-8-8V72z M112,400c-17.7,0-32-14.3-32-32s14.3-32,32-32
	s32,14.3,32,32S129.7,400,112,400z M240,288H128c-17.7,0-32-14.3-32-32v-96c0-17.7,14.3-32,32-32h112V288z M272,288V128h112
	c17.7,0,32,14.3,32,32v96c0,17.7-14.3,32-32,32H272z M400,400c-17.7,0-32-14.3-32-32s14.3-32,32-32s32,14.3,32,32S417.7,400,400,400
	z"/>
</svg>
